<?xml version="1.0" encoding="UTF-8" standalone="no"?>
<!DOCTYPE svg PUBLIC "-//W3C//DTD SVG 1.1//EN" "http://www.w3.org/Graphics/SVG/1.1/DTD/svg11.dtd">
<svg width="100%" height="100%" viewBox="0 0 600 1024" version="1.1" xmlns="http://www.w3.org/2000/svg" xmlns:xlink="http://www.w3.org/1999/xlink" xml:space="preserve" xmlns:serif="http://www.serif.com/" style="fill-rule:evenodd;clip-rule:evenodd;stroke-linejoin:round;stroke-miterlimit:2;">
    <g transform="matrix(1,0,0,1,334.518,288.565)">
        <rect x="108.441" y="342.234" width="61.733" height="64.212" style="fill:rgb(255,251,223);"/>
    </g>
    <g transform="matrix(1,0,0,1,9.26777,-2.74422)">
        <rect x="108.441" y="342.234" width="61.733" height="64.212" style="fill:rgb(255,251,223);"/>
    </g>
    <g transform="matrix(1,0,0,1,363.326,-256.254)">
        <rect x="108.441" y="342.234" width="61.733" height="64.212" style="fill:rgb(255,251,223);"/>
    </g>
    <g transform="matrix(1.19791,0,0,1.11376,313.333,52.3393)">
        <path d="M164.117,785.998L193.247,836.73L134.986,836.73L164.117,785.998Z" style="fill:rgb(255,251,223);"/>
    </g>
    <g transform="matrix(1,0,0,1,-40.6638,537.362)">
        <rect x="108.441" y="342.234" width="61.733" height="64.212" style="fill:rgb(255,251,223);"/>
    </g>
    <g transform="matrix(1.19791,0,0,1.11376,313.333,52.3393)">
        <path d="M164.117,785.998L193.247,836.73L134.986,836.73L164.117,785.998Z" style="fill:rgb(255,251,223);"/>
    </g>
    <g transform="matrix(1.19791,0,0,1.11376,51.3322,-198.853)">
        <path d="M164.117,785.998L193.247,836.73L134.986,836.73L164.117,785.998Z" style="fill:rgb(255,251,223);"/>
    </g>
    <g transform="matrix(1.19791,0,0,1.11376,150.094,-449.576)">
        <path d="M164.117,785.998L193.247,836.73L134.986,836.73L164.117,785.998Z" style="fill:rgb(255,251,223);"/>
    </g>
    <g transform="matrix(1.19791,0,0,1.11376,-87.6903,-790.949)">
        <path d="M164.117,785.998L193.247,836.73L134.986,836.73L164.117,785.998Z" style="fill:rgb(255,251,223);"/>
    </g>
    <g transform="matrix(1,0,0,1,65.7169,-272.292)">
        <ellipse cx="424.998" cy="581.009" rx="30.617" ry="30.713" style="fill:rgb(255,251,223);"/>
    </g>
    <g transform="matrix(1,0,0,1,-306.697,-10.4353)">
        <ellipse cx="424.998" cy="581.009" rx="30.617" ry="30.713" style="fill:rgb(255,251,223);"/>
    </g>
    <g transform="matrix(1,0,0,1.00617,-73.9977,273.86)">
        <ellipse cx="424.998" cy="581.009" rx="30.617" ry="30.713" style="fill:rgb(255,251,223);"/>
    </g>
    <g transform="matrix(1,0,0,1.00617,-127.919,-377.261)">
        <ellipse cx="424.998" cy="581.009" rx="30.617" ry="30.713" style="fill:rgb(255,251,223);"/>
    </g>
</svg>
